<svg width="99" height="83" viewBox="0 0 99 83" fill="none" xmlns="http://www.w3.org/2000/svg">
<rect x="20" y="1.15405" width="59" height="59" rx="29.5" fill="white"/>
<rect x="20" y="1.15405" width="59" height="59" rx="29.5" fill="#001E49" fill-opacity="0.1"/>
<path d="M55.5 31.4041H43.5C43.09 31.4041 42.75 31.0641 42.75 30.6541C42.75 30.2441 43.09 29.9041 43.5 29.9041H55.5C55.91 29.9041 56.25 30.2441 56.25 30.6541C56.25 31.0641 55.91 31.4041 55.5 31.4041Z" fill="#001E49"/>
<path d="M49.5 37.4041C49.09 37.4041 48.75 37.0641 48.75 36.6541V24.6541C48.75 24.2441 49.09 23.9041 49.5 23.9041C49.91 23.9041 50.25 24.2441 50.25 24.6541V36.6541C50.25 37.0641 49.91 37.4041 49.5 37.4041Z" fill="#001E49"/>
<rect x="20" y="1.15405" width="59" height="59" rx="29.5" stroke="white" stroke-dasharray="2 2"/>
<rect x="20" y="1.15405" width="59" height="59" rx="29.5" stroke="#001E49" stroke-opacity="0.4" stroke-dasharray="2 2"/>
<path d="M7.35975 77.6541L6.80775 76.0581H3.47175L2.91975 77.6541H1.15575L4.16775 69.2661H6.12375L9.13575 77.6541H7.35975ZM6.35175 74.7141L5.13975 71.2101L3.92775 74.7141H6.35175ZM9.82959 74.3061C9.82959 72.2301 11.1736 70.8981 12.8776 70.8981C13.7536 70.8981 14.5936 71.3061 15.0496 71.9301L15.0496 68.7741H16.7536L16.7536 77.6541H15.0496V76.6701C14.6536 77.2821 13.9096 77.7621 12.8656 77.7621C11.1736 77.7621 9.82959 76.3821 9.82959 74.3061ZM15.0616 74.3301C15.0616 73.0701 14.2216 72.3741 13.2976 72.3741C12.3976 72.3741 11.5456 73.0461 11.5456 74.3061C11.5456 75.5661 12.3976 76.2861 13.2976 76.2861C14.2216 76.2861 15.0616 75.5901 15.0616 74.3301ZM17.9624 74.3061C17.9624 72.2301 19.3064 70.8981 21.0104 70.8981C21.8864 70.8981 22.7264 71.3061 23.1824 71.9301V68.7741H24.8864L24.8864 77.6541H23.1824V76.6701C22.7864 77.2821 22.0424 77.7621 20.9984 77.7621C19.3064 77.7621 17.9624 76.3821 17.9624 74.3061ZM23.1944 74.3301C23.1944 73.0701 22.3544 72.3741 21.4304 72.3741C20.5304 72.3741 19.6784 73.0461 19.6784 74.3061C19.6784 75.5661 20.5304 76.2861 21.4304 76.2861C22.3544 76.2861 23.1944 75.5901 23.1944 74.3301ZM32.2186 75.6501L33.9586 71.0061H35.7466L31.6306 80.7981H29.8426L31.2826 77.4861L28.6186 71.0061H30.5026L32.2186 75.6501ZM43.0722 74.3301C43.0722 76.4181 41.5362 77.7621 39.6042 77.7621C37.6842 77.7621 36.2322 76.4181 36.2322 74.3301C36.2322 72.2301 37.7322 70.8981 39.6522 70.8981C41.5722 70.8981 43.0722 72.2301 43.0722 74.3301ZM37.9362 74.3301C37.9362 75.6501 38.7042 76.2981 39.6042 76.2981C40.4922 76.2981 41.3442 75.6501 41.3442 74.3301C41.3442 72.9981 40.5162 72.3621 39.6282 72.3621C38.7402 72.3621 37.9362 72.9981 37.9362 74.3301ZM50.5806 71.0061V77.6541L48.8886 77.6541V76.8141C48.4686 77.3781 47.7366 77.7381 46.9086 77.7381C45.3606 77.7381 44.2446 76.7301 44.2446 74.9061V71.0061H45.9246V74.6661C45.9246 75.7341 46.5126 76.3101 47.4006 76.3101C48.3126 76.3101 48.8886 75.7341 48.8886 74.6661V71.0061H50.5806ZM53.9182 74.3421V77.6541H52.2382V71.0061H53.9182V72.0381C54.3382 71.3541 55.0342 70.9101 55.9582 70.9101V72.6741H55.5142C54.5182 72.6741 53.9182 73.0581 53.9182 74.3421ZM61.6291 74.3421V77.6541H59.9491V71.0061H61.6291V72.0381C62.0491 71.3541 62.7451 70.9101 63.6691 70.9101V72.6741H63.2251C62.2291 72.6741 61.6291 73.0581 61.6291 74.3421ZM71.2207 74.3301C71.2207 76.4181 69.6847 77.7621 67.7527 77.7621C65.8327 77.7621 64.3807 76.4181 64.3807 74.3301C64.3807 72.2301 65.8807 70.8981 67.8007 70.8981C69.7207 70.8981 71.2207 72.2301 71.2207 74.3301ZM66.0847 74.3301C66.0847 75.6501 66.8527 76.2981 67.7527 76.2981C68.6407 76.2981 69.4927 75.6501 69.4927 74.3301C69.4927 72.9981 68.6647 72.3621 67.7767 72.3621C66.8887 72.3621 66.0847 72.9981 66.0847 74.3301ZM78.729 71.0061V77.6541H77.037V76.8141C76.617 77.3781 75.885 77.7381 75.057 77.7381C73.509 77.7381 72.393 76.7301 72.393 74.9061V71.0061H74.073V74.6661C74.073 75.7341 74.661 76.3101 75.549 76.3101C76.461 76.3101 77.037 75.7341 77.037 74.6661V71.0061H78.729ZM80.6506 75.5901V72.3861H79.8586V71.0061H80.6506V69.3621H82.3426V71.0061H83.8306V72.3861H82.3426V75.6021C82.3426 76.0461 82.5226 76.2381 83.0506 76.2381H83.8306V77.6541H82.7746C81.5026 77.6541 80.6506 77.1141 80.6506 75.5901ZM87.8949 72.2781C87.0909 72.2781 86.4549 72.7941 86.3229 73.7061H89.4789C89.4549 72.8301 88.7589 72.2781 87.8949 72.2781ZM91.0509 75.5661C90.6909 76.7901 89.5869 77.7621 87.9429 77.7621C86.0109 77.7621 84.6069 76.4181 84.6069 74.3301C84.6069 72.2301 85.9749 70.8981 87.9429 70.8981C89.8629 70.8981 91.2189 72.2061 91.2189 74.1861C91.2189 74.4021 91.2069 74.6181 91.1709 74.8341H86.3109C86.3949 75.8181 87.0669 76.3701 87.9069 76.3701C88.6269 76.3701 89.0229 76.0101 89.2389 75.5661H91.0509ZM97.6052 75.7581C97.6052 76.8981 96.6092 77.7621 94.9892 77.7621C93.3212 77.7621 92.1572 76.7901 92.0852 75.5541H93.7772C93.8372 76.0581 94.3052 76.4421 94.9772 76.4421C95.6372 76.4421 95.9972 76.1421 95.9972 75.7581C95.9972 74.5701 92.2412 75.3261 92.2412 72.8901C92.2412 71.7861 93.2252 70.8981 94.8692 70.8981C96.4772 70.8981 97.4492 71.7741 97.5452 73.0941H95.9372C95.8892 72.5781 95.4812 72.2301 94.8212 72.2301C94.1972 72.2301 93.8732 72.4821 93.8732 72.8661C93.8732 74.0781 97.5572 73.3221 97.6052 75.7581Z" fill="#001E49"/>
</svg>
