<svg width="24" height="25" viewBox="0 0 24 25" fill="none" xmlns="http://www.w3.org/2000/svg">
<path d="M20.9999 7.55712C20.9799 7.55712 20.9499 7.55712 20.9199 7.55712C15.6299 7.02712 10.3499 6.82712 5.11992 7.35712L3.07992 7.55712C2.65992 7.59712 2.28992 7.29712 2.24992 6.87712C2.20992 6.45712 2.50992 6.09712 2.91992 6.05712L4.95992 5.85712C10.2799 5.31712 15.6699 5.52712 21.0699 6.05712C21.4799 6.09712 21.7799 6.46712 21.7399 6.87712C21.7099 7.26712 21.3799 7.55712 20.9999 7.55712Z" fill="#C3262C"/>
<path d="M8.50001 6.54715C8.46001 6.54715 8.42001 6.54715 8.37001 6.53715C7.97001 6.46715 7.69001 6.07715 7.76001 5.67715L7.98001 4.36715C8.14001 3.40715 8.36001 2.07715 10.69 2.07715H13.31C15.65 2.07715 15.87 3.45715 16.02 4.37715L16.24 5.67715C16.31 6.08715 16.03 6.47715 15.63 6.53715C15.22 6.60715 14.83 6.32715 14.77 5.92715L14.55 4.62715C14.41 3.75715 14.38 3.58715 13.32 3.58715H10.7C9.64001 3.58715 9.62001 3.72715 9.47001 4.61715L9.24001 5.91715C9.18001 6.28715 8.86001 6.54715 8.50001 6.54715Z" fill="#C3262C"/>
<path d="M15.2099 23.5772H8.7899C5.2999 23.5772 5.1599 21.6472 5.0499 20.0872L4.3999 10.0172C4.3699 9.60722 4.6899 9.24722 5.0999 9.21722C5.5199 9.19722 5.8699 9.50722 5.8999 9.91722L6.5499 19.9872C6.6599 21.5072 6.6999 22.0772 8.7899 22.0772H15.2099C17.3099 22.0772 17.3499 21.5072 17.4499 19.9872L18.0999 9.91722C18.1299 9.50722 18.4899 9.19722 18.8999 9.21722C19.3099 9.24722 19.6299 9.59722 19.5999 10.0172L18.9499 20.0872C18.8399 21.6472 18.6999 23.5772 15.2099 23.5772Z" fill="#C3262C"/>
<path d="M13.6601 18.0771H10.3301C9.92008 18.0771 9.58008 17.7371 9.58008 17.3271C9.58008 16.9171 9.92008 16.5771 10.3301 16.5771H13.6601C14.0701 16.5771 14.4101 16.9171 14.4101 17.3271C14.4101 17.7371 14.0701 18.0771 13.6601 18.0771Z" fill="#C3262C"/>
<path d="M14.5 14.0771H9.5C9.09 14.0771 8.75 13.7371 8.75 13.3271C8.75 12.9171 9.09 12.5771 9.5 12.5771H14.5C14.91 12.5771 15.25 12.9171 15.25 13.3271C15.25 13.7371 14.91 14.0771 14.5 14.0771Z" fill="#C3262C"/>
</svg>
