<svg width="24" height="25" viewBox="0 0 24 25" fill="none" xmlns="http://www.w3.org/2000/svg">
<path d="M15 23.5771H9C3.57 23.5771 1.25 21.2571 1.25 15.8271V9.82715C1.25 4.39715 3.57 2.07715 9 2.07715H11C11.41 2.07715 11.75 2.41715 11.75 2.82715C11.75 3.23715 11.41 3.57715 11 3.57715H9C4.39 3.57715 2.75 5.21715 2.75 9.82715V15.8271C2.75 20.4371 4.39 22.0771 9 22.0771H15C19.61 22.0771 21.25 20.4371 21.25 15.8271V13.8271C21.25 13.4171 21.59 13.0771 22 13.0771C22.41 13.0771 22.75 13.4171 22.75 13.8271V15.8271C22.75 21.2571 20.43 23.5771 15 23.5771Z" fill="black"/>
<path d="M8.50008 18.5172C7.89008 18.5172 7.33008 18.2972 6.92008 17.8972C6.43008 17.4072 6.22008 16.6972 6.33008 15.9472L6.76008 12.9372C6.84008 12.3572 7.22008 11.6072 7.63008 11.1972L15.5101 3.31721C17.5001 1.32721 19.5201 1.32721 21.5101 3.31721C22.6001 4.40721 23.0901 5.51721 22.9901 6.62721C22.9001 7.52721 22.4201 8.40721 21.5101 9.30721L13.6301 17.1872C13.2201 17.5972 12.4701 17.9772 11.8901 18.0572L8.88008 18.4872C8.75008 18.5172 8.62008 18.5172 8.50008 18.5172ZM16.5701 4.37721L8.69008 12.2572C8.50008 12.4472 8.28008 12.8872 8.24008 13.1472L7.81008 16.1572C7.77008 16.4472 7.83008 16.6872 7.98008 16.8372C8.13008 16.9872 8.37008 17.0472 8.66008 17.0072L11.6701 16.5772C11.9301 16.5372 12.3801 16.3172 12.5601 16.1272L20.4401 8.24721C21.0901 7.59721 21.4301 7.01721 21.4801 6.47721C21.5401 5.82721 21.2001 5.13721 20.4401 4.36721C18.8401 2.76721 17.7401 3.21721 16.5701 4.37721Z" fill="black"/>
<path d="M19.8501 10.6572C19.7801 10.6572 19.7101 10.6472 19.6501 10.6272C17.0201 9.88718 14.9301 7.79718 14.1901 5.16718C14.0801 4.76718 14.3101 4.35718 14.7101 4.23718C15.1101 4.12718 15.5201 4.35718 15.6301 4.75718C16.2301 6.88718 17.9201 8.57718 20.0501 9.17718C20.4501 9.28718 20.6801 9.70717 20.5701 10.1072C20.4801 10.4472 20.1801 10.6572 19.8501 10.6572Z" fill="black"/>
</svg>
