<svg width="17" height="19" viewBox="0 0 17 19" fill="none" xmlns="http://www.w3.org/2000/svg">
<path fill-rule="evenodd" clip-rule="evenodd" d="M5.47717 7.14207C5.66965 7.33455 5.91346 7.42442 6.15727 7.42442C6.40108 7.42442 6.64489 7.33455 6.83737 7.14207C7.2095 6.76994 7.2095 6.154 6.83737 5.78187L6.32408 5.2686H13.4845C14.0876 5.2686 14.5752 5.75626 14.5752 6.35937V8.6306C14.5752 9.15671 15.0115 9.593 15.5376 9.593C16.0637 9.593 16.5 9.15671 16.5 8.6306V6.35937C16.5 4.70403 15.1526 3.34379 13.4845 3.34379H6.29842L6.83737 2.80482C7.2095 2.43269 7.2095 1.81676 6.83737 1.44463C6.46524 1.07249 5.8493 1.07249 5.47717 1.44463L3.30855 3.61325C3.16672 3.75508 3.07895 3.93232 3.04523 4.11798C3.03283 4.17895 3.02632 4.2419 3.02632 4.30619C3.02632 4.6102 3.17199 4.88422 3.3965 5.0614L5.47717 7.14207ZM10.6757 16.3331H3.51555C1.84738 16.3331 0.5 14.973 0.5 13.3176V11.0463C0.5 10.5202 0.936291 10.0839 1.46241 10.0839C1.98852 10.0839 2.42481 10.5202 2.42481 11.0463V13.3176C2.42481 13.9207 2.91244 14.4083 3.51555 14.4083H10.7017L10.1626 13.8692C9.79042 13.4971 9.79042 12.8811 10.1626 12.509C10.5347 12.1369 11.1506 12.1369 11.5227 12.509L13.6914 14.6776C13.8327 14.8189 13.9203 14.9954 13.9543 15.1803C13.967 15.242 13.9737 15.3057 13.9737 15.3707C13.9737 15.6752 13.8275 15.9497 13.6024 16.1268L11.5227 18.2064C11.3431 18.3989 11.0865 18.4888 10.8427 18.4888C10.5988 18.4888 10.355 18.3989 10.1626 18.2064C9.79042 17.8343 9.79042 17.2184 10.1626 16.8463L10.6757 16.3331Z" fill="#001E49" stroke="white" stroke-width="0.5"/>
</svg>
