<svg width="202" height="202" viewBox="0 0 202 202" fill="none" xmlns="http://www.w3.org/2000/svg">
<circle cx="101" cy="101" r="100.5" fill="white" stroke="#C3262C" stroke-dasharray="10 10"/>
<path d="M76.386 65.9316C76.386 52.56 87.249 41.6973 100.621 41.6973C113.992 41.6973 124.855 52.5598 124.855 65.9316C124.855 79.3043 113.991 90.1999 100.621 90.1999C87.2498 90.1999 76.386 79.3041 76.386 65.9316Z" stroke="#C3262C"/>
<path d="M100.622 99.624C106.881 99.624 112.731 97.9136 117.727 94.9369C119.809 93.7004 121.735 92.248 123.506 90.6098C137.099 98.5232 146.254 113.259 146.254 130.093V132.182C146.254 133.759 144.962 135.052 143.385 135.052H57.8586C56.2814 135.052 54.9888 133.759 54.9888 132.182V130.093C54.9888 113.259 64.1441 98.5232 77.7369 90.6098C79.5079 92.2481 81.4345 93.7007 83.5171 94.9372C88.5125 97.9138 94.3627 99.624 100.622 99.624Z" stroke="#C3262C"/>
<path d="M178.079 164.789H22.5918C49.796 198.312 83.5545 201.629 99.8711 201.979C139.931 202.817 169.076 178.408 178.079 164.789Z" fill="#001E49"/>
<path d="M97.0116 176.219V179.819C97.0116 180.277 97.1316 180.621 97.3716 180.851C97.6169 181.075 97.9529 181.187 98.3796 181.187C98.8063 181.187 99.1423 181.075 99.3876 180.851C99.6329 180.621 99.7556 180.277 99.7556 179.819V176.219H100.484V179.819C100.484 180.256 100.39 180.627 100.204 180.931C100.017 181.229 99.7636 181.453 99.4436 181.603C99.1236 181.747 98.7689 181.819 98.3796 181.819C97.9849 181.819 97.6276 181.747 97.3076 181.603C96.9929 181.453 96.7423 181.229 96.5556 180.931C96.3689 180.627 96.2756 180.256 96.2756 179.819V176.219H97.0116ZM102.394 179.475V181.763H101.666V176.219H103.466C103.882 176.219 104.234 176.291 104.522 176.435C104.81 176.573 105.026 176.768 105.17 177.019C105.314 177.264 105.386 177.541 105.386 177.851C105.386 178.32 105.226 178.709 104.906 179.019C104.592 179.323 104.112 179.475 103.466 179.475H102.394ZM103.466 178.899C103.866 178.899 104.162 178.808 104.354 178.627C104.552 178.44 104.65 178.181 104.65 177.851C104.65 177.52 104.554 177.264 104.362 177.083C104.17 176.896 103.872 176.803 103.466 176.803H102.394V178.899H103.466ZM107.019 181.203H108.963V181.763H106.291V176.219H107.019V181.203ZM112.257 176.163C112.774 176.163 113.246 176.283 113.673 176.523C114.105 176.763 114.446 177.099 114.697 177.531C114.948 177.957 115.073 178.443 115.073 178.987C115.073 179.525 114.948 180.011 114.697 180.443C114.446 180.875 114.105 181.213 113.673 181.459C113.246 181.699 112.774 181.819 112.257 181.819C111.74 181.819 111.265 181.699 110.833 181.459C110.401 181.213 110.06 180.875 109.809 180.443C109.558 180.011 109.433 179.525 109.433 178.987C109.433 178.443 109.558 177.957 109.809 177.531C110.06 177.099 110.401 176.763 110.833 176.523C111.265 176.283 111.74 176.163 112.257 176.163ZM112.257 176.811C111.862 176.811 111.505 176.901 111.185 177.083C110.87 177.259 110.622 177.512 110.441 177.843C110.26 178.173 110.169 178.555 110.169 178.987C110.169 179.419 110.26 179.8 110.441 180.131C110.622 180.461 110.87 180.717 111.185 180.899C111.505 181.08 111.862 181.171 112.257 181.171C112.652 181.171 113.006 181.08 113.321 180.899C113.636 180.717 113.881 180.461 114.057 180.131C114.238 179.8 114.329 179.419 114.329 178.987C114.329 178.555 114.238 178.173 114.057 177.843C113.881 177.512 113.636 177.259 113.321 177.083C113.006 176.901 112.652 176.811 112.257 176.811ZM119.371 180.547H116.907L116.475 181.763H115.731L117.747 176.219H118.547L120.555 181.763H119.803L119.371 180.547ZM119.163 179.971L118.139 177.107L117.115 179.971H119.163ZM126.158 179.019C126.158 179.589 126.041 180.083 125.806 180.499C125.571 180.909 125.235 181.224 124.798 181.443C124.366 181.656 123.854 181.763 123.262 181.763H121.51V176.219H123.262C123.854 176.219 124.366 176.333 124.798 176.563C125.235 176.787 125.571 177.109 125.806 177.531C126.041 177.947 126.158 178.443 126.158 179.019ZM123.262 181.203C123.961 181.203 124.494 181.011 124.862 180.627C125.23 180.243 125.414 179.707 125.414 179.019C125.414 178.331 125.23 177.795 124.862 177.411C124.494 177.027 123.961 176.835 123.262 176.835H122.238V181.203H123.262Z" fill="white"/>
<path d="M85.8426 174.653H83.2325C83.0731 174.653 82.9276 174.572 82.8421 174.436L82.334 173.628C81.9944 173.087 81.41 172.764 80.7702 172.764H76.8988C76.2613 172.764 75.6746 173.087 75.335 173.628L74.8246 174.436C74.7391 174.572 74.5936 174.651 74.4342 174.651H71.8217C71.0571 174.651 70.4358 175.272 70.4358 176.037V185.332C70.4358 186.096 71.0571 186.718 71.8217 186.718H85.845C86.6095 186.718 87.2309 186.096 87.2309 185.332V176.039C87.2286 175.275 86.6072 174.653 85.8426 174.653ZM86.3046 185.332C86.3046 185.586 86.0967 185.794 85.8426 185.794H71.8217C71.5676 185.794 71.3597 185.586 71.3597 185.332V176.039C71.3597 175.785 71.5676 175.577 71.8217 175.577H74.4365C74.9146 175.577 75.3535 175.335 75.6099 174.93L76.1204 174.122C76.2913 173.852 76.5824 173.69 76.9011 173.69H80.7702C81.0889 173.69 81.3823 173.852 81.5532 174.122L82.0614 174.93C82.3178 175.337 82.7543 175.577 83.2348 175.577H85.8473C86.1014 175.577 86.3092 175.785 86.3092 176.039V185.332H86.3046Z" fill="white"/>
<path d="M78.8329 176.935C76.9619 176.935 75.4397 178.457 75.4397 180.325C75.4397 182.194 76.9619 183.716 78.8329 183.716C80.7039 183.716 82.2261 182.194 82.2261 180.325C82.2261 178.457 80.7039 176.935 78.8329 176.935ZM78.8329 182.792C77.4724 182.792 76.3636 181.686 76.3636 180.325C76.3636 178.965 77.4701 177.859 78.8329 177.859C80.1957 177.859 81.3022 178.965 81.3022 180.325C81.3022 181.686 80.1934 182.792 78.8329 182.792Z" fill="white"/>
</svg>
